<svg id="svg" version="1.1" xmlns="http://www.w3.org/2000/svg" xmlns:xlink="http://www.w3.org/1999/xlink" width="400" height="332.3076923076923" viewBox="0, 0, 400,332.3076923076923"><g id="svgg"><path id="path0" d="M98.836 141.054 C 97.876 141.248,97.091 141.535,97.091 141.693 C 97.091 141.850,96.745 141.978,96.323 141.978 C 95.901 141.978,95.265 142.198,94.910 142.467 C 94.555 142.735,94.002 142.960,93.682 142.965 C 93.362 142.971,93.101 143.126,93.101 143.308 C 93.101 143.491,92.945 143.641,92.754 143.641 C 92.371 143.641,92.034 143.901,90.098 145.693 C 89.372 146.364,88.778 147.039,88.778 147.192 C 88.778 147.346,88.479 147.658,88.113 147.886 C 87.747 148.115,87.448 148.514,87.448 148.774 C 87.448 149.033,87.261 149.450,87.032 149.700 C 86.286 150.517,85.453 152.323,85.453 153.125 C 85.453 153.556,85.303 154.002,85.121 154.115 C 84.938 154.228,84.788 154.677,84.788 155.112 C 84.788 155.548,84.638 155.997,84.456 156.110 C 84.065 156.351,83.997 162.926,84.385 162.926 C 84.529 162.926,84.683 163.412,84.728 164.007 C 84.773 164.601,84.954 165.137,85.131 165.198 C 85.308 165.259,85.452 165.558,85.451 165.863 C 85.449 166.605,86.551 169.713,86.866 169.853 C 87.003 169.914,87.116 170.116,87.116 170.302 C 87.116 171.047,88.209 172.881,88.533 172.681 C 88.724 172.562,88.791 172.611,88.681 172.789 C 88.571 172.967,88.735 173.499,89.045 173.971 C 90.721 176.521,92.183 178.538,92.614 178.896 C 92.881 179.118,93.101 179.453,93.101 179.640 C 93.101 179.955,94.081 181.102,96.093 183.140 C 96.550 183.603,96.700 183.862,96.426 183.715 C 95.820 183.390,97.955 185.638,103.625 191.293 C 110.506 198.157,111.229 198.836,111.652 198.836 C 111.872 198.836,112.054 198.948,112.054 199.086 C 112.055 199.223,112.504 199.634,113.054 200.000 C 113.603 200.366,114.134 200.919,114.233 201.230 C 114.333 201.541,114.679 201.879,115.002 201.981 C 115.324 202.083,116.310 202.839,117.192 203.661 C 118.714 205.078,120.724 205.720,121.086 204.904 C 121.147 204.767,121.926 204.069,122.816 203.353 C 123.706 202.638,124.784 201.702,125.211 201.275 C 125.639 200.848,126.120 200.499,126.281 200.499 C 126.442 200.499,126.948 200.087,127.406 199.584 C 127.865 199.081,128.891 198.146,129.688 197.506 C 131.601 195.969,142.643 184.956,142.643 184.585 C 142.643 184.426,143.354 183.538,144.223 182.611 C 146.563 180.113,147.298 179.166,147.298 178.648 C 147.298 178.391,147.448 178.274,147.631 178.387 C 147.814 178.500,147.963 178.376,147.963 178.110 C 147.963 177.845,148.188 177.541,148.462 177.436 C 148.736 177.331,148.961 176.995,148.961 176.691 C 148.961 176.387,149.223 175.894,149.543 175.595 C 150.267 174.920,150.653 174.292,152.015 171.571 C 152.609 170.382,153.201 169.333,153.330 169.240 C 153.458 169.147,153.666 168.659,153.793 168.156 C 153.919 167.654,154.155 167.160,154.318 167.060 C 154.480 166.959,154.613 166.512,154.613 166.065 C 154.613 165.619,154.749 165.254,154.915 165.254 C 155.081 165.254,155.237 162.934,155.261 160.100 C 155.290 156.725,155.186 154.946,154.959 154.946 C 154.769 154.946,154.613 154.497,154.613 153.948 C 154.613 153.400,154.464 152.951,154.281 152.951 C 154.098 152.951,153.948 152.732,153.948 152.463 C 153.948 151.847,152.918 149.601,152.369 149.020 C 152.140 148.779,151.953 148.432,151.953 148.250 C 151.953 147.831,148.080 143.973,147.659 143.973 C 147.487 143.973,147.141 143.786,146.891 143.558 C 146.135 142.866,144.292 141.978,143.614 141.978 C 143.263 141.978,142.976 141.848,142.976 141.689 C 142.976 140.739,133.116 140.666,132.336 141.611 C 132.132 141.857,130.116 142.648,129.094 142.882 C 128.682 142.976,128.346 143.186,128.346 143.347 C 128.346 143.509,128.194 143.641,128.009 143.641 C 127.706 143.641,125.540 145.481,124.572 146.561 C 124.361 146.795,123.778 147.420,123.275 147.948 C 122.772 148.477,122.361 149.002,122.361 149.116 C 122.361 149.229,122.074 149.629,121.724 150.005 C 121.373 150.381,120.992 151.067,120.876 151.528 C 120.510 152.987,119.368 153.813,119.368 152.618 C 119.368 152.253,119.231 151.953,119.062 151.953 C 118.894 151.953,118.664 151.534,118.551 151.021 C 118.438 150.507,118.053 149.876,117.694 149.617 C 117.334 149.358,117.041 148.949,117.041 148.707 C 117.041 148.202,113.138 144.306,112.632 144.306 C 112.448 144.306,112.055 144.043,111.760 143.723 C 111.097 143.004,108.928 141.978,108.072 141.978 C 107.723 141.978,107.355 141.845,107.254 141.681 C 106.839 141.010,101.150 140.587,98.836 141.054 M88.446 291.517 C 88.446 291.669,87.884 291.809,87.199 291.826 C 86.513 291.844,84.194 291.893,82.045 291.935 C 79.896 291.977,78.138 292.122,78.138 292.257 C 78.138 292.392,76.609 292.602,74.740 292.725 C 72.871 292.847,71.195 293.094,71.016 293.273 C 70.837 293.453,70.121 293.599,69.426 293.599 C 68.732 293.599,68.163 293.734,68.163 293.898 C 68.163 294.062,67.116 294.302,65.835 294.431 C 64.555 294.559,63.508 294.799,63.508 294.963 C 63.508 295.127,63.059 295.262,62.510 295.262 C 61.962 295.262,61.513 295.392,61.513 295.551 C 61.513 295.710,60.821 295.918,59.976 296.014 C 59.130 296.109,58.344 296.315,58.230 296.473 C 58.115 296.630,57.648 296.811,57.190 296.875 C 56.733 296.940,56.284 297.090,56.193 297.208 C 55.959 297.511,53.875 298.298,52.785 298.496 C 52.282 298.588,51.870 298.795,51.870 298.957 C 51.870 299.119,51.571 299.252,51.205 299.252 C 50.840 299.252,50.540 299.382,50.540 299.542 C 50.540 299.701,49.942 299.928,49.210 300.045 C 48.479 300.162,47.880 300.405,47.880 300.586 C 47.880 300.767,47.656 300.914,47.382 300.914 C 47.107 300.914,46.883 301.047,46.883 301.210 C 46.883 301.372,46.359 301.604,45.719 301.724 C 45.079 301.844,44.555 302.050,44.555 302.181 C 44.555 302.382,42.904 303.218,41.729 303.612 C 41.546 303.673,41.146 303.938,40.840 304.200 C 40.196 304.751,36.024 307.129,35.162 307.435 C 34.842 307.549,34.580 307.774,34.580 307.936 C 34.580 308.097,34.428 308.229,34.243 308.229 C 33.956 308.229,29.955 310.979,28.690 312.045 C 28.468 312.232,28.062 312.573,27.789 312.801 C 27.517 313.030,27.201 313.217,27.087 313.217 C 26.974 313.217,26.433 313.666,25.884 314.214 C 25.335 314.763,24.760 315.212,24.605 315.212 C 24.232 315.212,21.613 317.894,21.613 318.277 C 21.613 318.442,21.800 318.464,22.028 318.327 C 22.358 318.128,22.360 318.181,22.036 318.581 C 21.714 318.979,21.714 319.177,22.036 319.525 C 22.364 319.879,22.346 319.910,21.945 319.686 C 21.515 319.445,21.509 319.485,21.903 319.969 C 22.154 320.279,22.230 320.532,22.072 320.532 C 21.915 320.532,22.189 320.906,22.682 321.363 C 23.810 322.409,25.643 322.487,26.600 321.530 C 26.966 321.164,27.479 320.865,27.740 320.865 C 28.001 320.865,28.509 320.490,28.868 320.033 C 29.228 319.576,29.681 319.202,29.875 319.202 C 30.069 319.202,30.602 318.828,31.059 318.371 C 31.516 317.914,32.040 317.539,32.222 317.539 C 32.405 317.539,32.929 317.165,33.386 316.708 C 33.843 316.251,34.282 315.877,34.361 315.877 C 34.631 315.877,38.736 313.072,38.847 312.812 C 38.908 312.669,39.119 312.552,39.315 312.552 C 39.511 312.552,40.134 312.202,40.700 311.775 C 41.266 311.348,42.365 310.721,43.142 310.381 C 43.919 310.042,44.555 309.643,44.555 309.495 C 44.555 309.348,44.780 309.227,45.054 309.227 C 45.328 309.227,45.553 309.089,45.553 308.921 C 45.553 308.753,46.002 308.516,46.550 308.396 C 47.099 308.275,47.548 308.039,47.548 307.871 C 47.548 307.702,47.847 307.564,48.213 307.564 C 48.579 307.564,48.878 307.415,48.878 307.232 C 48.878 307.049,49.026 306.899,49.208 306.899 C 49.758 306.899,52.203 305.762,52.203 305.506 C 52.203 305.375,52.728 305.168,53.370 305.048 C 54.012 304.928,54.620 304.696,54.720 304.534 C 54.820 304.372,55.193 304.239,55.547 304.239 C 55.902 304.239,56.193 304.097,56.193 303.922 C 56.193 303.747,56.718 303.506,57.360 303.386 C 58.002 303.265,58.610 303.034,58.710 302.872 C 58.810 302.710,59.257 302.577,59.704 302.577 C 60.150 302.577,60.515 302.427,60.515 302.244 C 60.515 302.062,60.865 301.912,61.291 301.912 C 61.718 301.912,62.177 301.802,62.312 301.667 C 62.447 301.532,62.734 301.412,62.949 301.401 C 63.928 301.349,65.860 300.811,66.025 300.544 C 66.125 300.382,66.722 300.249,67.351 300.249 C 67.981 300.249,68.495 300.113,68.495 299.945 C 68.495 299.778,69.620 299.536,70.994 299.407 C 72.368 299.278,73.574 299.041,73.674 298.880 C 73.773 298.719,74.893 298.587,76.163 298.587 C 77.480 298.587,78.470 298.444,78.470 298.254 C 78.470 298.042,81.241 297.922,86.118 297.922 C 90.995 297.922,93.766 298.042,93.766 298.254 C 93.766 298.442,94.701 298.587,95.907 298.587 C 97.085 298.587,98.128 298.715,98.225 298.871 C 98.321 299.028,100.085 299.263,102.145 299.393 C 104.204 299.523,106.041 299.751,106.228 299.900 C 106.414 300.049,107.091 300.254,107.731 300.356 C 108.371 300.458,109.717 300.717,110.723 300.932 C 111.729 301.147,113.001 301.380,113.549 301.451 C 114.648 301.594,116.732 302.016,119.036 302.564 C 121.114 303.057,121.932 303.206,123.940 303.453 C 124.900 303.571,125.686 303.796,125.686 303.953 C 125.686 304.111,126.209 304.239,126.850 304.239 C 127.490 304.239,128.013 304.389,128.013 304.572 C 128.013 304.755,128.126 304.879,128.263 304.847 C 128.707 304.746,131.818 305.274,132.502 305.567 C 133.282 305.901,134.331 306.137,137.432 306.675 C 138.681 306.892,139.591 307.181,139.455 307.317 C 139.237 307.535,141.135 307.693,141.429 307.481 C 141.492 307.436,141.781 307.595,142.071 307.835 C 142.360 308.076,143.431 308.359,144.449 308.464 C 145.468 308.569,146.301 308.784,146.301 308.941 C 146.301 309.098,146.825 309.227,147.465 309.227 C 148.105 309.227,148.628 309.361,148.628 309.526 C 148.628 309.690,149.676 309.930,150.956 310.058 C 152.236 310.187,153.283 310.426,153.283 310.591 C 153.283 310.755,153.660 310.889,154.119 310.889 C 154.579 310.889,155.215 311.021,155.532 311.183 C 156.463 311.655,159.288 312.246,159.625 312.039 C 159.794 311.934,159.933 312.006,159.933 312.200 C 159.933 312.393,160.523 312.552,161.244 312.552 C 161.965 312.552,162.647 312.702,162.760 312.884 C 162.873 313.067,163.396 313.217,163.924 313.217 C 164.451 313.217,164.961 313.345,165.058 313.503 C 165.155 313.660,166.090 313.889,167.134 314.011 C 168.179 314.134,169.193 314.361,169.388 314.515 C 169.583 314.670,170.191 314.874,170.740 314.970 C 171.288 315.066,172.111 315.247,172.569 315.372 C 173.026 315.497,174.114 315.681,174.986 315.781 C 175.859 315.881,176.653 316.093,176.751 316.252 C 176.850 316.412,177.370 316.542,177.908 316.542 C 178.446 316.542,178.886 316.667,178.886 316.819 C 178.886 316.971,179.073 317.106,179.302 317.119 C 181.607 317.244,184.539 317.692,184.539 317.920 C 184.539 318.076,184.988 318.204,185.536 318.204 C 186.085 318.204,186.534 318.341,186.534 318.509 C 186.534 318.676,187.658 318.918,189.032 319.047 C 190.406 319.176,191.612 319.413,191.712 319.574 C 191.811 319.735,192.401 319.867,193.021 319.867 C 193.642 319.867,194.494 320.016,194.914 320.198 C 195.595 320.494,197.792 320.867,202.078 321.416 C 202.855 321.515,203.491 321.703,203.491 321.833 C 203.491 321.964,204.174 322.106,205.009 322.149 C 205.844 322.192,206.901 322.369,207.357 322.543 C 207.814 322.717,209.263 322.945,210.578 323.051 C 211.892 323.157,213.267 323.372,213.633 323.527 C 213.998 323.683,215.121 323.905,216.126 324.021 C 217.132 324.136,218.404 324.287,218.953 324.356 C 219.501 324.425,221.147 324.577,222.610 324.694 C 224.073 324.811,225.569 325.038,225.935 325.198 C 226.301 325.359,227.423 325.561,228.429 325.647 C 229.435 325.734,230.781 325.878,231.421 325.968 C 232.062 326.058,235.204 326.240,238.404 326.373 C 241.604 326.506,244.270 326.736,244.329 326.884 C 244.472 327.247,270.324 327.272,270.324 326.909 C 270.324 326.751,272.980 326.509,276.226 326.371 C 283.400 326.067,283.373 326.069,283.811 325.786 C 284.005 325.660,285.310 325.527,286.710 325.490 C 288.111 325.453,289.190 325.315,289.108 325.184 C 289.027 325.052,290.416 324.850,292.194 324.735 C 293.973 324.620,295.877 324.454,296.426 324.367 C 296.974 324.280,298.396 324.052,299.584 323.860 C 300.773 323.669,302.793 323.378,304.073 323.214 C 305.353 323.049,307.074 322.757,307.897 322.563 C 308.720 322.369,310.029 322.207,310.806 322.203 C 311.584 322.198,312.219 322.045,312.219 321.862 C 312.219 321.679,312.993 321.530,313.937 321.530 C 314.882 321.530,315.543 321.417,315.405 321.280 C 315.268 321.143,316.627 320.841,318.426 320.610 C 323.365 319.974,324.190 319.820,324.190 319.539 C 324.190 319.396,325.311 319.175,326.681 319.047 C 328.051 318.918,329.257 318.676,329.361 318.509 C 329.464 318.341,330.064 318.204,330.693 318.204 C 331.322 318.204,331.837 318.072,331.837 317.911 C 331.837 317.750,332.959 317.512,334.331 317.384 C 335.702 317.255,336.825 317.044,336.825 316.914 C 336.825 316.784,337.386 316.641,338.071 316.595 C 338.757 316.550,339.368 316.370,339.429 316.195 C 339.490 316.020,339.949 315.877,340.449 315.877 C 340.950 315.877,342.115 315.652,343.039 315.378 C 343.963 315.104,345.112 314.847,345.593 314.807 C 346.074 314.767,346.467 314.633,346.467 314.509 C 346.467 314.386,347.028 314.204,347.714 314.106 C 348.400 314.008,349.335 313.841,349.792 313.735 C 350.249 313.629,351.112 313.452,351.708 313.342 C 352.305 313.231,352.875 313.008,352.975 312.846 C 353.075 312.684,353.671 312.552,354.301 312.552 C 354.930 312.552,355.445 312.424,355.445 312.267 C 355.445 312.111,355.856 311.979,356.359 311.975 C 356.862 311.971,357.872 311.787,358.603 311.567 C 359.335 311.347,360.345 311.088,360.848 310.991 C 361.351 310.893,361.762 310.696,361.762 310.552 C 361.762 310.408,362.660 310.186,363.757 310.058 C 364.854 309.931,365.668 309.692,365.566 309.527 C 365.464 309.362,365.901 309.227,366.536 309.227 C 367.172 309.227,367.742 309.091,367.803 308.924 C 367.864 308.758,368.736 308.520,369.742 308.396 C 370.748 308.271,371.621 308.033,371.682 307.867 C 371.743 307.701,372.220 307.564,372.743 307.564 C 373.266 307.564,373.778 307.428,373.881 307.261 C 373.984 307.094,374.703 306.861,375.480 306.743 C 376.840 306.537,377.243 306.412,379.052 305.633 C 379.510 305.437,380.407 305.180,381.047 305.063 C 382.433 304.809,384.406 304.193,384.871 303.869 C 385.054 303.741,385.914 303.531,386.783 303.402 C 387.652 303.272,388.362 303.034,388.362 302.872 C 388.362 302.710,388.736 302.577,389.194 302.577 C 389.651 302.577,390.025 302.427,390.025 302.244 C 390.025 302.062,390.465 301.912,391.003 301.912 C 391.541 301.912,392.076 301.758,392.192 301.571 C 392.308 301.383,392.581 301.270,392.799 301.320 C 393.620 301.509,396.342 300.123,396.342 299.516 C 396.342 299.188,396.482 298.919,396.653 298.919 C 397.037 298.919,397.011 296.966,396.624 296.727 C 396.469 296.631,396.342 296.326,396.342 296.050 C 396.342 295.281,395.628 294.765,394.401 294.647 C 393.402 294.551,392.605 294.747,390.524 295.602 C 389.549 296.002,387.922 296.377,387.473 296.305 C 387.258 296.270,386.988 296.395,386.872 296.583 C 386.756 296.771,386.221 296.924,385.683 296.924 C 385.145 296.924,384.705 297.058,384.705 297.222 C 384.705 297.386,384.144 297.603,383.458 297.705 C 380.591 298.131,378.055 298.731,378.055 298.983 C 378.055 299.131,377.679 299.252,377.219 299.252 C 376.759 299.252,376.124 299.395,375.806 299.569 C 375.281 299.858,373.135 300.322,370.075 300.808 C 369.435 300.910,368.761 301.108,368.579 301.249 C 368.247 301.504,364.812 302.092,364.339 301.974 C 364.202 301.940,364.090 302.062,364.090 302.244 C 364.090 302.427,363.575 302.577,362.946 302.577 C 362.316 302.577,361.721 302.707,361.623 302.866 C 361.465 303.121,357.000 303.769,356.359 303.629 C 356.222 303.599,356.110 303.724,356.110 303.907 C 356.110 304.090,355.362 304.239,354.447 304.239 C 353.533 304.239,352.785 304.370,352.785 304.529 C 352.785 304.688,351.625 304.928,350.208 305.061 C 348.791 305.195,347.332 305.381,346.966 305.476 C 346.600 305.571,345.515 305.720,344.555 305.806 C 343.594 305.893,342.880 306.080,342.968 306.222 C 343.056 306.364,341.972 306.581,340.558 306.705 C 339.145 306.828,337.539 307.004,336.991 307.096 C 336.442 307.188,335.021 307.346,333.832 307.446 C 332.643 307.546,331.520 307.751,331.337 307.902 C 331.153 308.052,330.031 308.210,328.843 308.251 C 327.655 308.293,326.562 308.394,326.414 308.477 C 326.266 308.559,325.443 308.681,324.585 308.748 C 323.727 308.815,321.455 309.035,319.534 309.237 C 317.614 309.439,314.659 309.679,312.968 309.771 C 311.276 309.863,309.892 310.056,309.892 310.202 C 309.892 310.347,306.900 310.574,303.244 310.707 C 295.953 310.971,295.922 310.973,295.394 311.304 C 295.193 311.430,292.015 311.549,288.333 311.568 C 284.627 311.588,281.553 311.741,281.448 311.911 C 281.195 312.320,245.158 312.324,244.905 311.916 C 244.802 311.748,242.143 311.593,238.995 311.570 C 235.848 311.547,233.193 311.402,233.095 311.249 C 232.998 311.095,231.421 310.939,229.593 310.901 C 227.764 310.863,224.771 310.687,222.943 310.510 C 221.114 310.333,218.458 310.110,217.041 310.015 C 215.623 309.919,214.464 309.728,214.464 309.589 C 214.464 309.450,213.529 309.303,212.386 309.263 C 211.243 309.223,209.672 309.031,208.896 308.837 C 208.119 308.643,207.184 308.562,206.818 308.658 C 206.452 308.754,206.068 308.696,205.966 308.531 C 205.863 308.365,204.965 308.229,203.970 308.229 C 202.975 308.229,202.161 308.098,202.161 307.937 C 202.161 307.776,201.226 307.548,200.083 307.431 C 198.940 307.314,197.631 307.144,197.174 307.054 C 196.717 306.963,195.482 306.798,194.431 306.687 C 193.379 306.576,192.519 306.384,192.519 306.261 C 192.519 306.073,191.363 305.894,189.609 305.811 C 189.381 305.800,189.194 305.679,189.194 305.542 C 189.194 305.406,188.069 305.188,186.695 305.060 C 185.321 304.931,184.115 304.694,184.015 304.532 C 183.916 304.371,183.254 304.239,182.544 304.239 C 181.834 304.239,181.171 304.108,181.072 303.947 C 180.972 303.786,179.617 303.548,178.060 303.418 C 176.503 303.288,175.229 303.061,175.229 302.913 C 175.229 302.765,174.593 302.561,173.815 302.459 C 170.216 301.988,166.945 301.391,166.720 301.164 C 166.584 301.027,165.983 300.914,165.384 300.914 C 164.785 300.914,164.210 300.776,164.105 300.606 C 164.000 300.437,162.570 300.193,160.927 300.065 C 159.283 299.936,157.938 299.716,157.938 299.576 C 157.938 299.436,157.377 299.240,156.692 299.140 C 156.006 299.040,154.472 298.782,153.283 298.567 C 152.095 298.352,150.860 298.161,150.540 298.144 C 150.220 298.126,149.958 297.994,149.958 297.851 C 149.958 297.707,149.210 297.589,148.296 297.589 C 147.382 297.589,146.633 297.455,146.633 297.290 C 146.633 297.126,145.923 296.905,145.054 296.799 C 144.185 296.694,143.101 296.536,142.643 296.450 C 140.199 295.986,137.299 295.534,135.827 295.389 C 134.913 295.299,133.940 295.138,133.666 295.031 C 132.933 294.746,132.185 294.652,128.595 294.396 C 126.812 294.268,125.353 294.037,125.353 293.882 C 125.353 293.726,124.390 293.599,123.212 293.599 C 122.034 293.599,120.983 293.459,120.878 293.288 C 120.772 293.117,120.426 292.980,120.110 292.985 C 117.600 293.021,108.728 292.446,108.728 292.247 C 108.728 292.040,102.749 291.837,96.509 291.833 C 95.732 291.832,95.096 291.724,95.096 291.593 C 95.096 291.461,93.599 291.328,91.771 291.296 C 89.942 291.265,88.446 291.364,88.446 291.517 " stroke="none" fill="#c4332c" fill-rule="evenodd"></path><path id="path1" d="M52.702 54.189 C 52.336 54.351,51.251 54.494,50.291 54.507 C 49.331 54.520,48.545 54.680,48.545 54.863 C 48.545 55.046,48.022 55.195,47.382 55.195 C 46.741 55.195,46.218 55.326,46.218 55.485 C 46.218 55.645,45.649 55.866,44.953 55.978 C 43.604 56.193,38.903 58.432,38.903 58.859 C 38.903 58.999,38.529 59.207,38.071 59.322 C 37.614 59.437,37.240 59.677,37.240 59.857 C 37.240 60.036,37.084 60.183,36.894 60.183 C 36.568 60.183,36.191 60.443,35.091 61.430 C 34.836 61.658,34.526 61.845,34.402 61.845 C 34.057 61.845,30.590 65.387,30.590 65.739 C 30.590 65.909,30.216 66.373,29.759 66.771 C 29.302 67.168,28.928 67.664,28.928 67.872 C 28.928 68.081,28.666 68.493,28.346 68.789 C 27.550 69.525,25.603 73.328,25.603 74.147 C 25.603 74.513,25.453 74.813,25.270 74.813 C 25.087 74.813,24.938 75.187,24.938 75.644 C 24.938 76.101,24.795 76.475,24.622 76.475 C 24.448 76.475,24.204 77.373,24.080 78.470 C 23.956 79.568,23.724 80.466,23.565 80.466 C 23.405 80.466,23.275 81.214,23.275 82.128 C 23.275 83.042,23.126 83.791,22.943 83.791 C 22.501 83.791,22.501 90.666,22.943 90.939 C 23.126 91.052,23.275 91.884,23.275 92.788 C 23.275 93.691,23.405 94.431,23.565 94.431 C 23.724 94.431,23.956 95.216,24.080 96.176 C 24.310 97.957,24.929 99.751,25.314 99.751 C 25.431 99.751,25.628 100.424,25.752 101.247 C 25.875 102.070,26.116 102.743,26.288 102.743 C 26.460 102.743,26.600 102.968,26.600 103.242 C 26.600 103.516,26.734 103.741,26.897 103.741 C 27.060 103.741,27.287 104.115,27.402 104.572 C 27.516 105.029,27.757 105.403,27.937 105.403 C 28.116 105.403,28.263 105.592,28.263 105.822 C 28.263 106.053,28.637 106.645,29.094 107.138 C 29.551 107.631,29.925 108.122,29.925 108.229 C 29.925 108.446,30.531 109.214,31.184 109.825 C 31.860 110.457,32.390 110.998,32.785 111.460 C 32.987 111.695,33.707 112.336,34.385 112.884 C 35.064 113.433,35.909 114.144,36.263 114.464 C 36.618 114.784,37.039 115.046,37.200 115.046 C 37.360 115.046,37.678 115.270,37.905 115.544 C 38.133 115.819,38.600 116.043,38.943 116.043 C 39.287 116.043,39.568 116.193,39.568 116.376 C 39.568 116.559,39.792 116.708,40.067 116.708 C 40.341 116.708,40.565 116.829,40.565 116.977 C 40.565 117.271,42.883 118.371,43.503 118.371 C 43.716 118.371,43.890 118.506,43.890 118.672 C 43.890 118.838,44.638 119.076,45.552 119.202 C 46.467 119.328,47.298 119.566,47.401 119.732 C 47.503 119.898,48.177 120.033,48.897 120.033 C 49.618 120.033,50.208 120.183,50.208 120.366 C 50.208 120.577,52.812 120.698,57.357 120.698 C 61.901 120.698,64.505 120.577,64.505 120.366 C 64.505 120.183,65.095 120.033,65.816 120.033 C 66.536 120.033,67.210 119.898,67.312 119.732 C 67.415 119.566,68.247 119.328,69.161 119.202 C 70.075 119.076,70.823 118.838,70.823 118.672 C 70.823 118.506,71.197 118.371,71.654 118.371 C 72.111 118.371,72.485 118.221,72.485 118.038 C 72.485 117.855,72.650 117.706,72.851 117.706 C 73.250 117.706,75.543 116.689,75.810 116.393 C 75.902 116.292,76.538 115.924,77.224 115.575 C 77.909 115.226,78.470 114.815,78.470 114.661 C 78.470 114.507,78.700 114.381,78.979 114.381 C 79.564 114.381,86.451 107.678,86.451 107.109 C 86.451 106.902,86.590 106.733,86.761 106.733 C 86.931 106.733,87.177 106.397,87.307 105.985 C 87.437 105.574,87.821 104.995,88.160 104.700 C 88.499 104.404,88.871 103.693,88.985 103.120 C 89.100 102.547,89.325 102.078,89.485 102.078 C 89.645 102.078,89.776 101.854,89.776 101.579 C 89.776 101.305,89.916 101.081,90.088 101.081 C 90.259 101.081,90.501 100.407,90.624 99.584 C 90.748 98.761,90.981 98.088,91.143 98.088 C 91.305 98.088,91.438 97.819,91.438 97.490 C 91.438 97.160,91.587 96.742,91.769 96.561 C 91.950 96.379,92.196 95.302,92.315 94.167 C 92.433 93.032,92.659 92.103,92.815 92.103 C 93.197 92.103,93.184 83.216,92.802 82.980 C 92.638 82.879,92.398 81.748,92.269 80.467 C 92.141 79.186,91.901 78.138,91.737 78.138 C 91.573 78.138,91.438 77.764,91.438 77.307 C 91.438 76.850,91.288 76.475,91.106 76.475 C 90.923 76.475,90.773 76.177,90.773 75.813 C 90.773 75.026,89.718 72.485,89.391 72.485 C 89.266 72.485,89.063 72.029,88.941 71.472 C 88.818 70.915,88.432 70.280,88.083 70.062 C 87.734 69.844,87.448 69.423,87.448 69.127 C 87.448 68.831,87.074 68.308,86.617 67.964 C 86.160 67.621,85.786 67.169,85.786 66.960 C 85.786 66.528,81.307 61.845,80.894 61.845 C 80.746 61.845,80.222 61.471,79.728 61.014 C 79.235 60.557,78.676 60.183,78.485 60.183 C 78.294 60.183,78.138 60.036,78.138 59.857 C 78.138 59.677,77.764 59.437,77.307 59.322 C 76.850 59.207,76.475 58.980,76.475 58.817 C 76.475 58.654,76.176 58.520,75.810 58.520 C 75.445 58.520,75.145 58.383,75.145 58.214 C 75.145 58.046,74.697 57.810,74.148 57.689 C 73.599 57.569,73.150 57.332,73.150 57.164 C 73.150 56.996,72.851 56.858,72.485 56.858 C 72.120 56.858,71.820 56.722,71.820 56.557 C 71.820 56.391,71.072 56.152,70.158 56.027 C 69.244 55.901,68.495 55.662,68.495 55.497 C 68.495 55.331,67.972 55.195,67.332 55.195 C 66.692 55.195,66.168 55.059,66.168 54.892 C 66.168 54.273,53.952 53.635,52.702 54.189 M104.960 54.087 C 104.838 54.209,104.738 68.947,104.738 86.838 L 104.738 119.368 107.398 119.368 L 110.058 119.368 110.058 95.573 L 110.058 71.777 117.003 78.698 C 120.823 82.505,126.079 87.639,128.683 90.108 C 131.287 92.577,139.300 100.470,146.490 107.648 C 156.878 118.018,159.737 120.698,160.413 120.698 L 161.264 120.698 161.264 87.947 L 161.264 55.195 158.603 55.195 L 155.943 55.195 155.943 78.969 C 155.943 92.045,155.857 102.743,155.751 102.743 C 155.588 102.743,154.259 101.533,152.545 99.825 C 152.311 99.592,147.522 94.804,141.903 89.185 C 136.283 83.566,131.495 78.789,131.262 78.570 C 131.030 78.350,130.670 77.976,130.462 77.738 C 130.254 77.501,127.958 75.287,125.359 72.818 C 122.760 70.349,117.363 65.075,113.365 61.097 C 106.614 54.380,105.552 53.494,104.960 54.087 M179.219 87.282 L 179.219 119.368 200.166 119.368 L 221.114 119.368 221.114 116.708 L 221.114 114.048 204.988 114.048 L 188.861 114.048 188.861 101.081 L 188.861 88.113 202.826 88.113 L 216.791 88.113 216.791 85.619 L 216.791 83.126 202.826 83.126 L 188.861 83.126 188.861 72.153 L 188.861 61.180 204.988 61.180 L 221.114 61.180 221.114 58.188 L 221.114 55.195 200.166 55.195 L 179.219 55.195 179.219 87.282 M62.967 59.841 C 63.155 60.029,63.727 60.183,64.239 60.183 C 64.751 60.183,65.170 60.319,65.170 60.486 C 65.170 60.653,65.769 60.891,66.500 61.014 C 67.232 61.138,67.830 61.375,67.830 61.542 C 67.830 61.709,68.130 61.845,68.495 61.845 C 68.861 61.845,69.160 61.992,69.160 62.172 C 69.160 62.351,69.534 62.592,69.992 62.706 C 70.449 62.821,70.823 63.048,70.823 63.211 C 70.823 63.374,70.979 63.508,71.169 63.508 C 71.598 63.508,71.960 63.815,74.566 66.389 C 76.936 68.730,77.561 69.491,78.551 71.239 C 78.940 71.924,79.380 72.485,79.529 72.485 C 79.678 72.485,79.800 72.650,79.800 72.851 C 79.800 73.052,80.040 73.763,80.333 74.430 C 81.755 77.672,82.461 79.967,82.461 81.356 C 82.461 81.963,82.610 82.461,82.793 82.461 C 83.000 82.461,83.126 84.400,83.126 87.614 C 83.126 90.449,82.991 92.768,82.826 92.768 C 82.662 92.768,82.449 93.404,82.352 94.181 C 82.110 96.129,81.366 98.753,81.055 98.753 C 80.914 98.753,80.798 98.965,80.798 99.225 C 80.798 99.780,79.746 101.862,79.385 102.023 C 79.248 102.084,79.135 102.420,79.135 102.771 C 79.135 103.121,78.996 103.408,78.825 103.408 C 78.655 103.408,78.415 103.723,78.293 104.109 C 77.960 105.157,73.568 110.058,72.962 110.058 C 72.833 110.058,72.381 110.432,71.958 110.889 C 71.534 111.347,70.956 111.721,70.673 111.721 C 70.390 111.721,70.158 111.867,70.158 112.047 C 70.158 112.226,69.784 112.467,69.327 112.582 C 68.869 112.696,68.495 112.924,68.495 113.087 C 68.495 113.250,68.271 113.383,67.997 113.383 C 67.722 113.383,67.498 113.519,67.498 113.685 C 67.498 113.850,66.750 114.089,65.835 114.214 C 64.921 114.340,64.173 114.579,64.173 114.744 C 64.173 114.910,63.649 115.046,63.009 115.046 C 62.369 115.046,61.845 115.195,61.845 115.378 C 61.845 115.583,60.183 115.711,57.523 115.711 C 55.145 115.711,53.200 115.577,53.200 115.415 C 53.200 115.252,52.714 115.036,52.120 114.934 C 50.176 114.603,47.880 113.902,47.880 113.640 C 47.880 113.499,47.581 113.383,47.215 113.383 C 46.850 113.383,46.550 113.250,46.550 113.087 C 46.550 112.924,46.176 112.696,45.719 112.582 C 45.262 112.467,44.888 112.226,44.888 112.047 C 44.888 111.867,44.717 111.721,44.508 111.721 C 43.937 111.721,38.365 106.015,38.095 105.154 C 37.966 104.742,37.721 104.406,37.550 104.406 C 37.380 104.406,37.240 104.194,37.240 103.935 C 37.240 103.676,37.128 103.414,36.991 103.353 C 36.630 103.192,35.578 101.110,35.578 100.555 C 35.578 100.295,35.428 100.083,35.245 100.083 C 35.062 100.083,34.913 99.784,34.913 99.418 C 34.913 99.052,34.774 98.753,34.604 98.753 C 34.434 98.753,34.192 97.928,34.067 96.920 C 33.941 95.912,33.705 95.005,33.544 94.905 C 33.382 94.806,33.250 93.985,33.250 93.081 C 33.250 92.177,33.101 91.438,32.918 91.438 C 32.715 91.438,32.585 89.893,32.585 87.468 C 32.585 85.179,32.726 83.410,32.918 83.292 C 33.101 83.179,33.250 82.431,33.250 81.629 C 33.250 80.828,33.386 80.088,33.552 79.986 C 33.717 79.884,33.956 79.052,34.081 78.138 C 34.207 77.224,34.446 76.392,34.611 76.290 C 34.777 76.188,34.913 75.813,34.913 75.458 C 34.913 75.103,35.062 74.813,35.245 74.813 C 35.428 74.813,35.578 74.574,35.578 74.282 C 35.578 73.808,36.479 71.915,36.909 71.488 C 37.001 71.397,37.613 70.499,38.270 69.493 C 39.700 67.304,42.013 64.866,43.486 63.996 C 44.074 63.649,44.555 63.263,44.555 63.140 C 44.555 63.016,44.929 62.821,45.387 62.706 C 45.844 62.592,46.218 62.351,46.218 62.172 C 46.218 61.992,46.442 61.845,46.717 61.845 C 46.991 61.845,47.215 61.709,47.215 61.542 C 47.215 61.375,47.813 61.138,48.544 61.014 C 49.274 60.891,49.956 60.653,50.059 60.486 C 50.163 60.319,50.612 60.183,51.059 60.183 C 51.505 60.183,51.870 60.041,51.870 59.869 C 51.870 59.174,62.274 59.148,62.967 59.841 M260.546 130.956 C 260.450 131.111,259.142 131.333,257.640 131.449 C 256.137 131.565,254.755 131.812,254.569 131.998 C 254.383 132.184,253.737 132.336,253.134 132.336 C 252.530 132.336,252.037 132.485,252.037 132.668 C 252.037 132.851,251.663 133.001,251.205 133.001 C 250.748 133.001,250.374 133.134,250.374 133.297 C 250.374 133.460,249.963 133.689,249.460 133.805 C 248.366 134.059,244.934 135.723,244.777 136.076 C 244.716 136.214,244.454 136.326,244.195 136.326 C 243.936 136.326,243.724 136.465,243.724 136.636 C 243.724 136.807,243.399 137.049,243.002 137.175 C 242.064 137.473,235.894 143.643,235.596 144.582 C 235.470 144.979,235.227 145.303,235.057 145.303 C 234.886 145.303,234.746 145.528,234.746 145.802 C 234.746 146.076,234.597 146.301,234.414 146.301 C 234.231 146.301,234.081 146.600,234.081 146.966 C 234.081 147.332,233.944 147.631,233.775 147.631 C 233.607 147.631,233.371 148.080,233.250 148.628 C 233.130 149.177,232.893 149.626,232.725 149.626 C 232.557 149.626,232.419 149.895,232.419 150.224 C 232.419 150.554,232.265 150.977,232.078 151.164 C 231.890 151.352,231.645 152.280,231.533 153.226 C 231.420 154.172,231.200 154.946,231.043 154.946 C 230.885 154.946,230.756 155.610,230.756 156.423 C 230.756 157.235,230.607 157.992,230.424 158.105 C 230.226 158.227,230.091 160.374,230.091 163.425 C 230.091 166.476,230.226 168.622,230.424 168.745 C 230.607 168.858,230.756 169.690,230.756 170.593 C 230.756 171.497,230.889 172.236,231.051 172.236 C 231.212 172.236,231.447 173.057,231.573 174.060 C 231.698 175.063,231.940 175.969,232.110 176.074 C 232.280 176.179,232.419 176.556,232.419 176.911 C 232.419 177.266,232.569 177.556,232.751 177.556 C 232.934 177.556,233.084 177.873,233.084 178.259 C 233.084 179.029,234.704 182.211,235.096 182.211 C 235.230 182.211,235.433 182.585,235.548 183.042 C 235.663 183.500,235.903 183.874,236.083 183.874 C 236.262 183.874,236.409 184.098,236.409 184.372 C 236.409 184.647,236.549 184.871,236.719 184.871 C 236.890 184.871,237.122 185.163,237.235 185.519 C 237.348 185.876,237.732 186.260,238.088 186.373 C 238.445 186.486,238.734 186.755,238.731 186.972 C 238.724 187.476,242.751 191.189,243.305 191.189 C 243.536 191.189,243.724 191.335,243.724 191.515 C 243.724 191.694,244.098 191.935,244.555 192.050 C 245.012 192.164,245.387 192.392,245.387 192.555 C 245.387 192.718,245.611 192.851,245.885 192.851 C 246.160 192.851,246.384 192.984,246.384 193.147 C 246.384 193.309,246.908 193.540,247.548 193.661 C 248.188 193.781,248.712 194.022,248.712 194.196 C 248.712 194.371,248.936 194.514,249.210 194.514 C 249.485 194.514,249.709 194.654,249.709 194.826 C 249.709 194.998,250.382 195.239,251.205 195.362 C 252.028 195.486,252.702 195.719,252.702 195.881 C 252.702 196.044,253.213 196.176,253.838 196.176 C 254.462 196.176,255.036 196.363,255.112 196.592 C 255.219 196.912,257.615 197.007,265.597 197.007 C 273.431 197.007,276.044 196.907,276.359 196.592 C 276.588 196.363,277.194 196.176,277.706 196.176 C 278.218 196.176,278.637 196.047,278.637 195.889 C 278.637 195.731,279.273 195.512,280.050 195.403 C 281.576 195.189,283.285 194.501,283.289 194.098 C 283.291 193.961,283.605 193.849,283.989 193.849 C 284.759 193.849,286.617 192.858,286.617 192.447 C 286.617 192.304,286.879 192.181,287.199 192.176 C 287.519 192.170,288.080 191.946,288.446 191.679 C 293.542 187.955,294.280 186.652,292.329 184.828 C 291.360 183.923,289.609 183.508,289.609 184.184 C 289.609 184.354,289.347 184.578,289.027 184.681 C 288.707 184.784,287.922 185.318,287.282 185.869 C 286.642 186.419,285.856 186.954,285.536 187.056 C 285.216 187.159,284.954 187.383,284.954 187.554 C 284.954 187.724,284.730 187.864,284.456 187.864 C 284.181 187.864,283.957 188.010,283.957 188.190 C 283.957 188.369,283.583 188.610,283.126 188.725 C 282.668 188.839,282.294 189.067,282.294 189.230 C 282.294 189.393,282.087 189.526,281.834 189.526 C 281.580 189.526,280.944 189.750,280.420 190.023 C 279.897 190.296,279.140 190.521,278.739 190.522 C 278.339 190.523,277.919 190.673,277.805 190.856 C 277.692 191.039,277.247 191.189,276.816 191.189 C 276.385 191.189,275.970 191.376,275.894 191.604 C 275.788 191.920,274.008 192.020,268.496 192.020 C 262.983 192.020,261.203 191.920,261.097 191.604 C 261.021 191.376,260.447 191.189,259.823 191.189 C 259.198 191.189,258.687 191.052,258.687 190.885 C 258.687 190.719,258.088 190.481,257.357 190.357 C 256.625 190.234,256.027 189.996,256.027 189.829 C 256.027 189.663,255.727 189.526,255.362 189.526 C 254.996 189.526,254.697 189.393,254.697 189.230 C 254.697 189.067,254.323 188.839,253.865 188.725 C 253.408 188.610,253.034 188.369,253.034 188.190 C 253.034 188.010,252.878 187.864,252.687 187.864 C 252.496 187.864,251.937 187.490,251.444 187.032 C 250.951 186.575,250.440 186.201,250.308 186.201 C 249.980 186.201,246.384 182.492,246.384 182.152 C 246.384 182.002,246.122 181.602,245.802 181.264 C 244.557 179.947,244.117 179.253,243.898 178.258 C 243.773 177.689,243.533 177.224,243.365 177.224 C 243.197 177.224,243.059 176.999,243.059 176.725 C 243.059 176.451,242.919 176.226,242.747 176.226 C 242.575 176.226,242.334 175.553,242.210 174.730 C 242.087 173.907,241.853 173.234,241.691 173.234 C 241.529 173.234,241.397 172.815,241.397 172.303 C 241.397 171.791,241.209 171.185,240.981 170.956 C 240.674 170.649,240.565 168.641,240.565 163.259 C 240.565 157.876,240.674 155.868,240.981 155.561 C 241.209 155.333,241.397 154.801,241.397 154.381 C 241.397 153.960,241.527 153.616,241.687 153.616 C 241.846 153.616,242.072 153.017,242.189 152.286 C 242.306 151.554,242.550 150.956,242.730 150.956 C 242.911 150.956,243.059 150.657,243.059 150.291 C 243.059 149.925,243.197 149.626,243.365 149.626 C 243.533 149.626,243.763 149.206,243.876 148.693 C 243.989 148.180,244.375 147.548,244.734 147.290 C 245.093 147.031,245.387 146.629,245.387 146.397 C 245.387 145.814,250.469 140.769,251.334 140.494 C 251.720 140.371,252.037 140.132,252.037 139.961 C 252.037 139.790,252.261 139.651,252.535 139.651 C 252.810 139.651,253.034 139.501,253.034 139.318 C 253.034 139.135,253.183 138.986,253.364 138.986 C 253.895 138.986,256.359 137.853,256.359 137.609 C 256.359 137.486,257.107 137.283,258.022 137.157 C 258.936 137.031,259.684 136.793,259.684 136.627 C 259.684 136.461,260.423 136.326,261.327 136.326 C 262.231 136.326,263.062 136.176,263.175 135.993 C 263.288 135.810,264.644 135.661,266.188 135.661 C 267.837 135.661,268.994 135.798,268.994 135.993 C 268.994 136.176,269.742 136.326,270.657 136.326 C 271.571 136.326,272.319 136.458,272.319 136.621 C 272.319 136.783,273.030 137.022,273.899 137.152 C 274.767 137.282,275.553 137.486,275.644 137.605 C 275.943 137.994,277.897 138.986,278.365 138.986 C 278.617 138.986,279.038 139.285,279.302 139.651 C 279.565 140.017,279.948 140.316,280.151 140.316 C 280.355 140.316,280.922 140.765,281.411 141.313 C 281.899 141.862,282.445 142.311,282.623 142.311 C 282.801 142.311,283.040 142.685,283.155 143.142 C 283.270 143.599,283.497 143.973,283.660 143.973 C 283.823 143.973,283.957 144.273,283.957 144.638 C 283.957 145.004,284.106 145.303,284.289 145.303 C 284.472 145.303,284.622 145.528,284.622 145.802 C 284.622 146.217,285.268 146.301,288.446 146.301 C 291.854 146.301,292.269 146.238,292.269 145.724 C 292.269 145.070,290.659 141.708,290.026 141.040 C 289.797 140.799,289.609 140.493,289.609 140.361 C 289.609 139.669,284.764 135.328,283.992 135.328 C 283.790 135.328,283.624 135.179,283.624 134.996 C 283.624 134.813,283.400 134.663,283.126 134.663 C 282.851 134.663,282.627 134.520,282.627 134.346 C 282.627 134.171,282.103 133.930,281.463 133.810 C 280.823 133.690,280.299 133.459,280.299 133.296 C 280.299 133.134,280.073 133.001,279.796 133.001 C 279.519 133.001,279.033 132.871,278.715 132.713 C 277.339 132.027,275.650 131.621,273.400 131.438 C 272.074 131.331,270.989 131.114,270.989 130.958 C 270.989 130.587,260.775 130.585,260.546 130.956 M20.174 131.891 C 20.051 132.014,19.950 133.436,19.950 135.051 L 19.950 137.988 32.253 137.988 L 44.555 137.988 44.555 167.082 L 44.555 196.176 49.044 196.176 L 53.533 196.176 53.533 167.082 L 53.533 137.988 65.848 137.988 L 78.163 137.988 78.067 134.913 L 77.972 131.837 49.184 131.752 C 33.351 131.705,20.297 131.768,20.174 131.891 M170.463 131.892 C 170.089 132.267,170.199 176.559,170.574 176.559 C 170.758 176.559,170.906 177.445,170.906 178.554 C 170.906 179.651,171.035 180.549,171.192 180.549 C 171.350 180.549,171.566 181.285,171.672 182.186 C 171.841 183.606,172.344 184.979,172.901 185.536 C 172.993 185.628,173.327 186.264,173.644 186.949 C 173.961 187.635,174.372 188.196,174.558 188.196 C 174.744 188.196,174.896 188.401,174.896 188.651 C 174.896 189.197,177.817 192.186,178.351 192.186 C 178.557 192.186,178.913 192.485,179.141 192.851 C 179.370 193.217,179.745 193.516,179.976 193.516 C 180.206 193.516,180.915 193.870,181.552 194.303 C 182.189 194.736,183.196 195.196,183.791 195.327 C 184.385 195.457,184.871 195.702,184.871 195.870 C 184.871 196.038,185.382 196.176,186.007 196.176 C 186.632 196.176,187.206 196.363,187.282 196.592 C 187.388 196.911,189.567 197.007,196.675 197.007 C 203.783 197.007,205.962 196.911,206.068 196.592 C 206.144 196.363,206.568 196.176,207.010 196.176 C 207.452 196.176,207.814 196.046,207.814 195.886 C 207.814 195.727,208.412 195.501,209.144 195.384 C 209.875 195.267,210.474 195.040,210.474 194.881 C 210.474 194.722,210.736 194.501,211.056 194.391 C 212.308 193.960,213.833 192.806,215.687 190.889 C 218.138 188.352,218.454 187.971,218.454 187.545 C 218.454 187.355,218.603 187.199,218.786 187.199 C 218.969 187.199,219.119 187.050,219.119 186.868 C 219.119 186.337,220.252 183.874,220.496 183.874 C 220.619 183.874,220.822 183.126,220.948 182.211 C 221.073 181.297,221.312 180.549,221.478 180.549 C 221.643 180.549,221.779 179.830,221.779 178.953 C 221.779 178.075,221.930 177.206,222.114 177.022 C 222.334 176.802,222.419 168.988,222.363 154.262 L 222.278 131.837 219.867 131.739 L 217.456 131.642 217.456 153.103 C 217.456 167.188,217.342 174.564,217.124 174.564 C 216.940 174.564,216.791 175.444,216.791 176.539 C 216.791 177.625,216.642 178.607,216.459 178.720 C 216.276 178.833,216.126 179.244,216.126 179.634 C 216.126 181.539,211.014 188.861,209.684 188.861 C 209.521 188.861,209.146 189.140,208.850 189.482 C 208.554 189.823,207.826 190.209,207.232 190.339 C 206.637 190.470,206.151 190.714,206.151 190.883 C 206.151 191.051,205.807 191.189,205.387 191.189 C 204.966 191.189,204.435 191.376,204.206 191.604 C 203.904 191.907,202.109 192.020,197.601 192.020 C 192.944 192.020,191.376 191.917,191.272 191.604 C 191.196 191.376,190.846 191.189,190.496 191.189 C 190.145 191.189,189.859 191.046,189.859 190.871 C 189.859 190.697,189.340 190.457,188.706 190.338 C 187.992 190.204,187.478 189.882,187.354 189.491 C 187.244 189.145,186.927 188.861,186.649 188.861 C 186.025 188.861,182.676 185.478,182.381 184.551 C 182.263 184.178,182.027 183.874,181.856 183.874 C 181.686 183.874,181.546 183.649,181.546 183.375 C 181.546 183.101,181.406 182.876,181.234 182.876 C 181.062 182.876,180.821 182.201,180.697 181.376 C 180.573 180.551,180.340 179.794,180.178 179.694 C 180.012 179.591,179.884 169.184,179.884 155.793 C 179.884 134.472,179.830 132.054,179.358 131.873 C 178.641 131.598,170.740 131.615,170.463 131.892 M302.587 132.317 C 302.353 132.755,302.268 143.135,302.326 164.487 L 302.411 196.010 307.149 196.102 L 311.887 196.194 311.887 180.558 L 311.887 164.921 330.341 164.921 L 348.795 164.921 348.795 180.549 L 348.795 196.176 353.618 196.176 L 358.441 196.176 358.356 164.007 L 358.271 131.837 353.616 131.837 L 348.961 131.837 348.874 145.885 L 348.787 159.933 330.337 159.933 L 311.887 159.933 311.887 145.802 L 311.887 131.671 307.410 131.671 C 303.316 131.671,302.903 131.726,302.587 132.317 M28.678 243.496 C 27.901 243.692,27.265 243.973,27.265 244.120 C 27.265 244.268,26.966 244.389,26.600 244.389 C 26.234 244.389,25.935 244.522,25.935 244.685 C 25.935 244.849,25.571 245.073,25.126 245.185 C 24.681 245.297,24.222 245.687,24.106 246.052 C 23.990 246.418,23.762 246.717,23.599 246.717 C 23.165 246.717,21.613 248.468,21.613 248.958 C 21.613 249.188,21.463 249.377,21.280 249.377 C 21.097 249.377,20.948 249.646,20.948 249.975 C 20.948 250.304,20.761 250.761,20.532 250.989 C 20.241 251.281,20.116 252.740,20.116 255.861 C 20.116 258.982,20.241 260.441,20.532 260.732 C 20.761 260.960,20.948 261.416,20.948 261.746 C 20.948 262.075,21.080 262.344,21.241 262.344 C 21.403 262.344,21.623 262.606,21.730 262.926 C 22.189 264.291,23.080 265.328,24.522 266.175 C 25.116 266.524,25.603 266.927,25.603 267.071 C 25.603 267.214,25.815 267.332,26.074 267.332 C 26.333 267.332,26.598 267.491,26.663 267.686 C 26.728 267.880,27.413 268.124,28.187 268.228 C 28.960 268.332,29.593 268.547,29.593 268.705 C 29.593 268.864,31.538 268.994,33.915 268.994 C 36.575 268.994,38.238 268.866,38.238 268.662 C 38.238 268.479,38.582 268.329,39.004 268.329 C 39.886 268.329,43.225 266.745,43.225 266.327 C 43.225 266.173,43.511 265.956,43.860 265.845 C 44.619 265.604,44.976 264.809,44.707 263.960 C 44.506 263.329,42.228 263.017,42.228 263.621 C 42.228 263.774,41.631 264.186,40.902 264.535 C 40.172 264.884,39.574 265.283,39.572 265.420 C 39.569 265.557,39.268 265.669,38.903 265.669 C 38.537 265.669,38.238 265.819,38.238 266.002 C 38.238 266.201,36.908 266.334,34.913 266.334 C 32.918 266.334,31.588 266.201,31.588 266.002 C 31.588 265.819,31.360 265.669,31.082 265.669 C 29.936 265.669,26.636 263.031,26.611 262.095 C 26.605 261.866,26.479 261.679,26.332 261.679 C 25.959 261.679,24.938 259.284,24.938 258.409 C 24.938 258.013,24.788 257.689,24.605 257.689 C 24.420 257.689,24.273 256.802,24.273 255.694 C 24.273 254.586,24.420 253.699,24.605 253.699 C 24.788 253.699,24.938 253.375,24.938 252.980 C 24.938 252.104,25.959 249.709,26.332 249.709 C 26.479 249.709,26.600 249.559,26.600 249.377 C 26.600 248.484,30.248 246.052,31.586 246.052 C 31.931 246.052,32.306 245.902,32.419 245.719 C 32.532 245.536,33.205 245.387,33.915 245.387 C 34.625 245.387,35.298 245.536,35.411 245.719 C 35.524 245.902,35.889 246.052,36.220 246.052 C 36.995 246.052,39.900 247.668,39.900 248.099 C 39.900 248.875,40.927 249.377,42.517 249.377 C 44.047 249.377,45.216 248.766,44.282 248.454 C 44.066 248.382,43.890 248.116,43.890 247.861 C 43.890 247.245,41.012 244.389,40.390 244.389 C 40.121 244.389,39.900 244.256,39.900 244.094 C 39.900 243.309,31.249 242.848,28.678 243.496 M69.077 243.288 C 68.536 243.430,68.495 244.312,68.495 255.885 L 68.495 268.329 70.657 268.329 L 72.818 268.329 72.818 262.510 L 72.818 256.692 79.302 256.692 L 85.786 256.692 85.786 262.510 L 85.786 268.329 88.113 268.329 L 90.441 268.329 90.441 255.899 L 90.441 243.469 89.692 243.269 C 86.194 242.331,85.786 242.902,85.786 248.723 L 85.786 253.699 79.302 253.699 L 72.818 253.699 72.818 248.778 C 72.818 242.915,72.469 242.402,69.077 243.288 M124.976 243.397 C 124.676 243.572,124.333 244.240,124.212 244.883 C 124.092 245.526,123.887 246.052,123.757 246.052 C 123.443 246.052,122.762 247.621,122.493 248.963 C 122.375 249.556,122.171 250.042,122.041 250.042 C 121.910 250.042,121.518 250.902,121.169 251.953 C 120.820 253.005,120.440 253.940,120.325 254.032 C 120.209 254.123,119.836 254.983,119.497 255.943 C 119.157 256.904,118.765 257.689,118.625 257.689 C 118.485 257.689,118.371 258.063,118.371 258.520 C 118.371 258.978,118.221 259.352,118.038 259.352 C 117.855 259.352,117.706 259.622,117.706 259.953 C 117.706 260.284,117.486 260.845,117.218 261.200 C 116.949 261.555,116.725 262.182,116.719 262.594 C 116.713 263.005,116.559 263.342,116.376 263.342 C 116.193 263.342,116.038 263.603,116.033 263.924 C 116.027 264.244,115.802 264.796,115.534 265.151 C 115.265 265.506,115.046 266.142,115.046 266.564 C 115.046 266.986,114.896 267.332,114.713 267.332 C 114.530 267.332,114.381 267.565,114.381 267.850 C 114.381 269.103,117.116 268.293,117.816 266.833 C 118.167 266.101,118.660 265.106,118.911 264.620 C 119.163 264.135,119.368 263.499,119.368 263.207 C 119.368 262.915,119.518 262.677,119.701 262.677 C 119.884 262.677,120.033 262.452,120.033 262.178 C 120.033 261.754,120.876 261.679,125.622 261.679 L 131.210 261.679 131.773 262.955 C 132.083 263.656,132.336 264.404,132.336 264.617 C 132.336 264.830,132.479 265.004,132.653 265.004 C 132.828 265.004,133.069 265.528,133.189 266.168 C 133.309 266.808,133.540 267.332,133.703 267.332 C 133.865 267.332,133.998 267.556,133.998 267.830 C 133.998 268.225,134.472 268.329,136.270 268.329 C 138.919 268.329,139.054 268.252,138.493 267.062 C 138.261 266.570,137.866 265.682,137.616 265.087 C 137.366 264.493,137.065 264.007,136.947 264.007 C 136.829 264.007,136.634 263.483,136.514 262.843 C 136.394 262.203,136.153 261.679,135.978 261.679 C 135.804 261.679,135.661 261.455,135.661 261.180 C 135.661 260.906,135.511 260.682,135.328 260.682 C 135.145 260.682,134.996 260.383,134.996 260.019 C 134.996 259.199,133.934 256.692,133.587 256.692 C 133.448 256.692,133.333 256.543,133.333 256.361 C 133.333 255.794,132.192 253.367,131.925 253.367 C 131.785 253.367,131.670 253.105,131.669 252.785 C 131.668 252.465,131.443 251.774,131.170 251.250 C 130.897 250.727,130.673 250.091,130.673 249.837 C 130.673 249.584,130.524 249.377,130.341 249.377 C 130.158 249.377,130.008 249.152,130.008 248.878 C 130.008 248.603,129.875 248.379,129.713 248.379 C 129.550 248.379,129.319 247.855,129.199 247.215 C 129.079 246.575,128.838 246.052,128.663 246.052 C 128.489 246.052,128.346 245.827,128.346 245.553 C 128.346 245.278,128.196 245.054,128.013 245.054 C 127.830 245.054,127.681 244.760,127.681 244.401 C 127.681 243.321,126.106 242.737,124.976 243.397 M163.175 243.288 C 162.634 243.430,162.594 244.312,162.594 255.885 L 162.594 268.329 164.755 268.329 L 166.916 268.329 166.916 263.009 L 166.916 257.689 167.747 257.689 C 168.204 257.689,168.579 257.839,168.579 258.022 C 168.579 258.204,168.840 258.359,169.160 258.365 C 169.879 258.378,170.906 259.127,170.906 259.638 C 170.906 259.846,171.022 260.017,171.163 260.017 C 171.304 260.017,171.702 260.540,172.047 261.180 C 172.391 261.820,172.799 262.344,172.953 262.344 C 173.108 262.344,173.234 262.500,173.234 262.691 C 173.234 262.882,173.832 263.848,174.564 264.838 C 175.295 265.828,175.894 266.733,175.894 266.849 C 175.894 267.186,177.351 268.306,177.805 268.318 C 178.034 268.324,178.221 268.479,178.221 268.662 C 178.221 268.854,179.274 268.994,180.715 268.994 L 183.209 268.994 183.209 267.664 C 183.209 266.402,183.157 266.334,182.189 266.334 C 181.097 266.334,178.221 263.694,178.221 262.691 C 178.221 262.500,178.095 262.344,177.941 262.344 C 177.787 262.344,177.379 261.820,177.034 261.180 C 176.689 260.540,176.292 260.017,176.150 260.017 C 176.009 260.017,175.894 259.792,175.894 259.518 C 175.894 259.244,175.777 259.019,175.634 259.019 C 175.298 259.019,174.578 257.121,174.821 256.877 C 174.923 256.775,175.244 256.687,175.533 256.682 C 176.122 256.671,177.807 255.233,178.661 254.015 C 179.371 253.001,179.465 247.678,178.784 246.990 C 178.546 246.748,178.246 246.274,178.118 245.937 C 177.990 245.599,177.587 245.245,177.222 245.150 C 176.857 245.055,176.559 244.844,176.559 244.683 C 176.559 244.521,176.259 244.389,175.894 244.389 C 175.528 244.389,175.229 244.274,175.229 244.132 C 175.229 243.383,165.435 242.698,163.175 243.288 M209.393 243.281 C 208.852 243.429,208.811 244.315,208.811 255.885 L 208.811 268.329 210.810 268.329 L 212.809 268.329 212.722 255.777 L 212.635 243.225 211.305 243.173 C 210.574 243.144,209.713 243.193,209.393 243.281 M238.653 243.288 C 237.863 243.495,237.816 246.215,238.597 246.515 C 238.887 246.626,241.056 246.717,243.419 246.717 L 247.714 246.717 247.714 257.523 L 247.714 268.329 249.543 268.329 L 251.372 268.329 251.372 257.532 L 251.372 246.735 256.110 246.643 L 260.848 246.550 260.947 245.014 C 261.036 243.651,260.961 243.455,260.282 243.273 C 259.415 243.041,239.547 243.055,238.653 243.288 M286.521 243.265 C 286.391 243.396,286.284 249.088,286.284 255.916 L 286.284 268.329 288.117 268.329 L 289.950 268.329 289.863 255.777 L 289.776 243.225 288.267 243.127 C 287.437 243.073,286.652 243.135,286.521 243.265 M319.119 243.288 C 318.578 243.430,318.537 244.312,318.537 255.885 L 318.537 268.329 327.016 268.329 L 335.495 268.329 335.495 266.999 L 335.495 265.669 329.343 265.669 L 323.192 265.669 323.192 261.180 L 323.192 256.692 328.512 256.692 L 333.832 256.692 333.832 255.397 C 333.832 253.719,333.763 253.699,327.986 253.699 L 323.192 253.699 323.192 250.215 L 323.192 246.732 329.260 246.641 L 335.328 246.550 335.428 245.014 C 335.516 243.651,335.441 243.455,334.763 243.273 C 333.897 243.041,320.013 243.054,319.119 243.288 M361.689 243.704 C 361.009 244.043,360.213 244.561,359.920 244.854 C 359.627 245.147,359.251 245.387,359.085 245.387 C 358.918 245.387,358.689 245.761,358.574 246.218 C 358.459 246.675,358.232 247.049,358.069 247.049 C 357.906 247.049,357.772 248.321,357.772 249.875 C 357.772 251.538,357.909 252.702,358.105 252.702 C 358.288 252.702,358.437 252.903,358.437 253.149 C 358.437 253.699,359.554 255.029,360.015 255.029 C 360.200 255.029,360.537 255.254,360.765 255.528 C 360.992 255.802,361.460 256.027,361.803 256.027 C 362.146 256.027,362.427 256.176,362.427 256.359 C 362.427 256.542,362.801 256.692,363.259 256.692 C 363.716 256.692,364.090 256.822,364.090 256.982 C 364.090 257.141,364.688 257.367,365.420 257.484 C 366.151 257.601,366.750 257.845,366.750 258.026 C 366.750 258.206,366.962 258.354,367.222 258.354 C 367.728 258.354,369.634 259.298,370.258 259.859 C 371.271 260.767,371.844 262.686,371.378 263.609 C 370.849 264.660,369.904 265.669,369.451 265.669 C 369.276 265.669,369.079 265.831,369.013 266.028 C 368.940 266.247,367.799 266.387,366.085 266.387 C 364.371 266.387,363.229 266.247,363.156 266.028 C 363.091 265.831,362.825 265.669,362.566 265.669 C 362.307 265.669,362.095 265.520,362.095 265.337 C 362.095 265.154,361.870 265.004,361.596 265.004 C 361.322 265.004,361.097 264.780,361.097 264.505 C 361.097 264.231,360.954 264.007,360.780 264.007 C 360.605 264.007,360.364 263.483,360.244 262.843 C 360.029 261.697,360.001 261.679,358.358 261.679 L 356.690 261.679 356.853 263.373 C 356.975 264.648,357.233 265.269,357.893 265.880 C 358.375 266.328,358.770 266.837,358.770 267.013 C 358.770 267.188,359.005 267.332,359.292 267.332 C 359.580 267.332,360.039 267.556,360.314 267.830 C 360.588 268.105,361.167 268.329,361.600 268.329 C 362.033 268.329,362.480 268.479,362.594 268.662 C 362.710 268.851,364.370 268.994,366.437 268.994 C 368.641 268.994,370.075 268.863,370.075 268.662 C 370.075 268.479,370.416 268.329,370.832 268.329 C 372.063 268.329,374.397 266.445,374.397 265.452 C 374.397 265.206,374.510 265.003,374.647 265.002 C 375.137 264.996,375.727 263.182,375.727 261.679 C 375.727 260.176,375.137 258.362,374.647 258.357 C 374.510 258.355,374.397 258.153,374.397 257.906 C 374.397 257.347,373.277 256.027,372.803 256.027 C 372.609 256.027,372.252 255.840,372.010 255.611 C 371.238 254.880,367.712 253.367,366.783 253.367 C 366.399 253.367,366.085 253.217,366.085 253.034 C 366.085 252.851,365.872 252.702,365.613 252.702 C 364.355 252.702,361.097 250.228,361.097 249.274 C 361.097 247.808,362.930 246.052,364.460 246.052 C 364.805 246.052,365.087 245.902,365.087 245.719 C 365.087 245.536,365.611 245.387,366.251 245.387 C 366.891 245.387,367.415 245.536,367.415 245.719 C 367.415 245.902,367.789 246.052,368.246 246.052 C 368.703 246.052,369.077 246.185,369.077 246.348 C 369.077 246.511,369.434 246.734,369.871 246.844 C 370.455 246.990,370.722 247.351,370.884 248.210 C 371.100 249.362,371.123 249.377,372.793 249.377 L 374.484 249.377 374.319 247.913 C 374.147 246.385,372.583 244.389,371.560 244.389 C 371.292 244.389,371.072 244.263,371.072 244.109 C 371.072 242.998,363.736 242.681,361.689 243.704 M172.268 246.614 C 173.549 247.250,174.231 247.845,174.231 248.328 C 174.231 248.508,174.393 248.710,174.591 248.776 C 174.789 248.842,174.952 249.636,174.952 250.540 C 174.952 251.445,174.789 252.238,174.591 252.304 C 174.393 252.370,174.231 252.560,174.231 252.725 C 174.231 253.209,173.125 254.364,172.661 254.364 C 172.427 254.364,172.236 254.514,172.236 254.697 C 172.236 254.879,171.862 255.029,171.405 255.029 C 170.948 255.029,170.574 255.179,170.574 255.362 C 170.574 255.544,169.751 255.694,168.745 255.694 L 166.916 255.694 166.916 250.873 L 166.916 246.052 169.026 246.052 C 170.340 246.052,171.564 246.264,172.268 246.614 M125.686 249.707 C 125.686 250.275,126.827 252.702,127.094 252.702 C 127.234 252.702,127.348 252.866,127.348 253.067 C 127.348 253.268,127.558 253.904,127.814 254.480 C 128.069 255.056,128.480 256.014,128.726 256.608 C 128.972 257.203,129.286 257.689,129.424 257.689 C 129.563 257.689,129.676 257.988,129.676 258.354 C 129.676 258.985,129.454 259.019,125.382 259.019 L 121.088 259.019 121.889 257.440 C 122.330 256.571,122.691 255.599,122.692 255.278 C 122.693 254.958,122.843 254.697,123.026 254.697 C 123.209 254.697,123.358 254.397,123.358 254.032 C 123.358 253.666,123.508 253.367,123.691 253.367 C 123.874 253.367,124.024 253.105,124.025 252.785 C 124.026 252.465,124.251 251.774,124.524 251.250 C 124.797 250.727,125.021 250.091,125.021 249.837 C 125.021 249.584,125.170 249.377,125.353 249.377 C 125.536 249.377,125.686 249.525,125.686 249.707 " stroke="none" fill="#040404" fill-rule="evenodd"></path><path id="path2" d="M89.277 146.031 L 88.612 146.720 89.341 146.342 C 90.109 145.945,90.669 145.290,90.211 145.323 C 90.063 145.334,89.643 145.653,89.277 146.031 M124.548 145.987 C 123.617 146.926,124.041 147.021,125.014 146.091 C 125.467 145.658,125.692 145.312,125.513 145.323 C 125.334 145.334,124.900 145.633,124.548 145.987 M86.451 291.565 C 86.451 291.727,86.899 291.841,87.448 291.818 C 87.997 291.796,88.446 291.664,88.446 291.525 C 88.446 291.386,87.997 291.272,87.448 291.272 C 86.899 291.272,86.451 291.404,86.451 291.565 M95.096 291.552 C 95.096 291.706,95.755 291.818,96.560 291.801 C 97.365 291.784,97.955 291.658,97.870 291.521 C 97.658 291.177,95.096 291.205,95.096 291.552 M150.984 298.041 C 151.060 298.107,151.571 298.261,152.120 298.384 C 152.848 298.547,152.983 298.516,152.618 298.270 C 152.169 297.966,150.650 297.754,150.984 298.041 M104.073 299.714 C 104.073 299.786,104.586 299.904,105.214 299.977 C 105.841 300.050,106.281 299.992,106.191 299.847 C 106.031 299.587,104.073 299.464,104.073 299.714 M208.507 308.681 C 208.583 308.747,209.094 308.901,209.643 309.024 C 210.371 309.187,210.506 309.156,210.141 308.910 C 209.692 308.606,208.173 308.394,208.507 308.681 " stroke="none" fill="#c81c18" fill-rule="evenodd"></path><path id="path3" d="" stroke="none" fill="#381c18" fill-rule="evenodd"></path><path id="path4" d="" stroke="none" fill="#042018" fill-rule="evenodd"></path></g></svg>